<svg width="18" height="18" viewBox="0 0 18 18" fill="none" xmlns="http://www.w3.org/2000/svg">
<path d="M9.01093 17.1593L9.78154 16.3832C9.96393 16.1994 9.96286 15.9027 9.77915 15.7202L3.69761 9.68235L17.0347 9.63434C17.2935 9.6334 17.5027 9.42277 17.5017 9.1639L17.4978 8.07016C17.4969 7.81129 17.2862 7.60217 17.0274 7.6031L3.69029 7.65112L9.7282 1.56957C9.91059 1.38587 9.90952 1.08907 9.72582 0.906649L8.94964 0.136079C8.76593 -0.0463077 8.46914 -0.0452392 8.28671 0.138466L0.135981 8.3481C-0.0464059 8.5318 -0.0453373 8.8286 0.138368 9.01102L8.348 17.1618C8.53171 17.3441 8.8285 17.3431 9.01093 17.1593Z" fill="white"/>
</svg>
