<svg width="10" height="17" viewBox="0 0 10 17" fill="none" xmlns="http://www.w3.org/2000/svg">
<g clip-path="url(#clip0_2333_7)">
<path d="M9.05727 11.1081L8.80386 10.8565C8.6359 10.6897 8.36454 10.6907 8.19775 10.8587L5.22841 13.8668L5.18008 0.442328C5.17923 0.205651 4.98664 0.0144496 4.74997 0.0153017L4.39282 0.0165876C4.15615 0.0174398 3.96494 0.210022 3.9658 0.4467L4.01413 13.8712L1.02321 10.8845C0.855247 10.7177 0.583891 10.7187 0.417101 10.8867L0.165512 11.1401C-0.00124243 11.3081 -0.000265435 11.5794 0.167694 11.7462L4.32551 15.8914C4.49347 16.0582 4.76483 16.0572 4.93162 15.8892L9.05948 11.7142C9.22624 11.5462 9.22526 11.2748 9.05727 11.1081Z" fill="#212121"/>
</g>
<defs>
<clipPath id="clip0_2333_7">
<rect width="9" height="16" fill="white" transform="translate(0 0.0324037) rotate(-0.206289)"/>
</clipPath>
</defs>
</svg>
