<svg width="9" height="17" viewBox="0 0 9 17" fill="none" xmlns="http://www.w3.org/2000/svg">
<path d="M6.99629 4.66453e-06L0.996331 0.0216071C0.444147 0.0235952 -0.0020498 0.473017 -6.17015e-05 1.0252L0.050344 15.0251C0.0523321 15.5773 0.501754 16.0235 1.05394 16.0215L7.0539 15.9999C7.60608 15.9979 8.05228 15.5485 8.05029 14.9963L7.99989 0.996398C7.9979 0.444214 7.54848 -0.00198344 6.99629 4.66453e-06ZM1.05034 15.0215L0.999932 1.0216L6.99989 0.999998L7.00709 2.99999L5.25711 3.00629C5.11898 3.00678 5.00751 3.11906 5.00801 3.25718L5.00981 3.75718C5.0103 3.89531 5.12258 4.00678 5.26071 4.00628L7.01069 3.99998L7.01789 5.99997L5.26791 6.00627C5.12978 6.00676 5.01831 6.11904 5.01881 6.25716L5.02061 6.75716C5.02111 6.89529 5.13338 7.00676 5.27151 7.00626L7.0215 6.99996L7.0287 8.99995L5.27871 9.00625C5.14058 9.00674 5.02911 9.11902 5.02961 9.25715L5.03141 9.75714C5.03191 9.89527 5.14418 10.0067 5.28231 10.0062L7.0323 9.99994L7.0395 11.9999L5.28951 12.0062C5.15138 12.0067 5.03991 12.119 5.04041 12.2571L5.04221 12.7571C5.04271 12.8952 5.15499 13.0067 5.29311 13.0062L7.0431 12.9999L7.0503 14.9999L1.05034 15.0215Z" fill="#212121"/>
</svg>
