<svg width="17" height="17" viewBox="0 0 17 17" fill="none" xmlns="http://www.w3.org/2000/svg">
<path d="M13.9927 1.97842L11.9674 1.98571C11.0493 0.782135 9.61272 -0.00582269 7.98554 3.58485e-05C6.35837 0.00589439 4.92748 0.804176 4.01808 2.01433L1.99278 2.02163C0.889978 2.0256 -0.00397324 2.92601 -2.66545e-06 4.02881L0.0360014 14.0287C0.039972 15.1316 0.940384 16.0255 2.04319 16.0215L14.0431 15.9783C15.1459 15.9744 16.0399 15.0739 16.0359 13.9711L15.9999 3.97121C15.9959 2.8684 15.0955 1.97445 13.9927 1.97842ZM7.98914 1.00003C10.1982 0.992076 11.9956 2.77655 12.0035 4.9856C12.0115 7.19465 10.227 8.99202 8.01795 8.99998C5.8089 9.00793 4.01153 7.22345 4.00357 5.0144C3.99562 2.80536 5.7801 1.00798 7.98914 1.00003ZM15.0359 13.9747C15.0379 14.5269 14.5917 14.9763 14.0395 14.9783L2.03959 15.0215C1.4874 15.0235 1.03798 14.5773 1.03599 14.0251L0.999991 4.02521C0.998003 3.47303 1.4442 3.02361 1.99638 3.02162L3.42012 3.01649C3.15296 3.6309 3.00102 4.30614 3.00358 5.01801C3.0135 7.77486 5.26469 10.0099 8.02155 9.99997C10.7784 9.99005 13.0134 7.73886 13.0035 4.982C13.001 4.27013 12.8441 3.596 12.5726 2.98354L13.9963 2.97841C14.5485 2.97643 14.9979 3.42262 14.9999 3.97481L15.0359 13.9747ZM8.01435 7.99998C8.84153 7.99701 9.51191 7.32178 9.50894 6.49459C9.50737 6.0596 9.31691 5.67153 9.01936 5.39854L9.95642 3.18984C10.0643 2.93601 9.9457 2.64237 9.69124 2.53454C9.43835 2.4267 9.14378 2.54494 9.03594 2.79971L8.09827 5.00935C6.98989 4.94115 6.50678 5.90071 6.50896 6.50539C6.51193 7.33258 7.18716 8.00296 8.01435 7.99998ZM8.00715 6C8.28339 5.999 8.50795 6.22195 8.50894 6.49819C8.50994 6.77444 8.28699 6.999 8.01075 6.99999C7.7345 7.00098 7.50994 6.77804 7.50895 6.50179C7.50796 6.22555 7.7309 6.00099 8.00715 6Z" fill="#212121"/>
</svg>
