<svg width="206" height="208" viewBox="0 0 206 208" fill="none" xmlns="http://www.w3.org/2000/svg">
<g opacity="0.1">
<path d="M127.761 103.911C127.81 117.586 116.764 128.713 103.089 128.762C89.4131 128.811 78.287 117.765 78.2378 104.089C78.1885 90.4136 89.2348 79.2875 102.91 79.2383C116.586 79.189 127.712 90.2353 127.761 103.911Z" fill="white"/>
<path fill-rule="evenodd" clip-rule="evenodd" d="M103.374 207.999C155.767 207.811 198.972 168.912 205.999 118.486L145.088 118.706C139.032 136.039 122.567 148.501 103.16 148.571C83.7534 148.641 67.199 136.298 61.018 119.008L0.106865 119.228C7.4974 169.601 50.981 208.188 103.374 207.999ZM60.9111 89.2943L-0.000118156 89.5136C7.0275 39.0882 50.2321 0.189317 102.625 0.000679653C155.018 -0.187958 198.502 38.3988 205.892 88.7723L144.981 88.9916C138.8 71.7023 122.246 59.359 102.839 59.4289C83.4325 59.4987 66.9674 71.961 60.9111 89.2943ZM127.761 103.911C127.81 117.586 116.764 128.713 103.089 128.762C89.4131 128.811 78.287 117.765 78.2378 104.089C78.1885 90.4136 89.2348 79.2875 102.91 79.2383C116.586 79.189 127.712 90.2353 127.761 103.911Z" fill="white"/>
</g>
</svg>
